<?xml version="1.0" encoding="utf-8"?>
<!-- Generator: Adobe Illustrator 16.0.0, SVG Export Plug-In . SVG Version: 6.00 Build 0)  -->
<!DOCTYPE svg PUBLIC "-//W3C//DTD SVG 1.1//EN" "http://www.w3.org/Graphics/SVG/1.1/DTD/svg11.dtd">
<svg version="1.1" id="Capa_1" xmlns="http://www.w3.org/2000/svg" xmlns:xlink="http://www.w3.org/1999/xlink" x="0px" y="0px"
	 width="595.279px" height="841.891px" viewBox="0 0 595.279 841.891" enable-background="new 0 0 595.279 841.891"
	 xml:space="preserve">
<g id="Search">
	<path d="M307.281,428.19l-4.405-4.405c-0.023-0.023-0.051-0.04-0.075-0.062c0.867-1.315,1.373-2.889,1.373-4.582
		c0-4.604-3.732-8.337-8.337-8.337s-8.337,3.732-8.337,8.337c0,4.604,3.732,8.336,8.337,8.336c1.692,0,3.267-0.506,4.581-1.372
		c0.022,0.024,0.038,0.052,0.062,0.075l4.405,4.405c0.662,0.661,1.735,0.661,2.396,0
		C307.943,429.925,307.943,428.852,307.281,428.19z M295.836,424.589c-3.008,0-5.447-2.438-5.447-5.447s2.438-5.447,5.447-5.447
		c3.008,0,5.446,2.439,5.446,5.447S298.844,424.589,295.836,424.589z"/>
</g>
</svg>
